<?xml version="1.0" encoding="UTF-8"?>
<!DOCTYPE svg PUBLIC "-//W3C//DTD SVG 1.1//EN" "http://www.w3.org/Graphics/SVG/1.1/DTD/svg11.dtd">
<svg xmlns="http://www.w3.org/2000/svg" version="1.1" width="500px" height="500px" style="shape-rendering:geometricPrecision; text-rendering:geometricPrecision; image-rendering:optimizeQuality; fill-rule:evenodd; clip-rule:evenodd" xmlns:xlink="http://www.w3.org/1999/xlink">
<g><path style="opacity:1" fill="#f9fefe" d="M -0.5,-0.5 C 166.167,-0.5 332.833,-0.5 499.5,-0.5C 499.5,166.167 499.5,332.833 499.5,499.5C 332.833,499.5 166.167,499.5 -0.5,499.5C -0.5,332.833 -0.5,166.167 -0.5,-0.5 Z"/></g>
<g><path style="opacity:1" fill="#060606" d="M 241.5,130.5 C 267.391,131.408 290.724,139.574 311.5,155C 314.106,156.938 315.939,159.438 317,162.5C 319.393,188.122 313.893,211.788 300.5,233.5C 297.5,231.167 294.833,228.5 292.5,225.5C 302.467,206.758 306.967,186.758 306,165.5C 289.27,152.75 270.436,144.75 249.5,141.5C 228.64,144.602 209.973,152.602 193.5,165.5C 191.884,200.821 203.884,230.654 229.5,255C 235.662,259.918 242.329,264.084 249.5,267.5C 260.886,262.285 270.719,254.952 279,245.5C 281.683,248.016 284.183,250.683 286.5,253.5C 276.816,265.85 264.482,274.517 249.5,279.5C 221.057,267.221 201.223,246.554 190,217.5C 183.322,199.761 180.655,181.428 182,162.5C 183.061,159.438 184.894,156.938 187.5,155C 203.765,142.863 221.765,134.696 241.5,130.5 Z"/></g>
<g><path style="opacity:1" fill="#18c6ba" d="M 244.5,147.5 C 246.167,147.5 247.833,147.5 249.5,147.5C 249.5,151.167 249.5,154.833 249.5,158.5C 274.151,161.151 287.817,174.817 290.5,199.5C 290.016,208.1 287.35,215.933 282.5,223C 289.289,230.791 296.456,238.291 304,245.5C 306.728,252.864 304.228,255.697 296.5,254C 288.986,246.319 281.319,238.819 273.5,231.5C 266.39,236.759 258.39,239.426 249.5,239.5C 249.83,246.532 249.497,253.532 248.5,260.5C 224.061,246.657 208.561,225.99 202,198.5C 199.401,188.643 198.401,178.643 199,168.5C 212.658,158.086 227.824,151.086 244.5,147.5 Z"/></g>
<g><path style="opacity:1" fill="#f8fefe" d="M 242.5,170.5 C 265.454,169.181 277.287,179.847 278,202.5C 273.449,221.709 261.282,229.876 241.5,227C 222.632,218.719 216.799,204.886 224,185.5C 228.541,178.455 234.708,173.455 242.5,170.5 Z"/></g>
<g><path style="opacity:1" fill="#0c0d0d" d="M 174.5,294.5 C 178.846,294.334 183.179,294.501 187.5,295C 189.286,295.785 190.786,296.951 192,298.5C 192.667,306.5 192.667,314.5 192,322.5C 191.626,323.416 191.126,324.25 190.5,325C 191.687,326.019 192.687,327.186 193.5,328.5C 189.435,330.144 185.769,329.644 182.5,327C 179.5,326.667 176.5,326.333 173.5,326C 172.667,325.167 171.833,324.333 171,323.5C 170.333,314.833 170.333,306.167 171,297.5C 172.145,296.364 173.312,295.364 174.5,294.5 Z"/></g>
<g><path style="opacity:1" fill="#0b0b0b" d="M 202.5,294.5 C 206.106,294.211 209.606,294.544 213,295.5C 215.442,305.885 217.942,316.219 220.5,326.5C 217.5,326.5 214.5,326.5 211.5,326.5C 211.5,324.833 211.5,323.167 211.5,321.5C 208.813,321.336 206.146,321.503 203.5,322C 202.62,323.356 202.286,324.856 202.5,326.5C 199.833,326.5 197.167,326.5 194.5,326.5C 196.545,315.654 199.212,304.987 202.5,294.5 Z"/></g>
<g><path style="opacity:1" fill="#23c7bc" d="M 226.5,294.5 C 231.628,294.112 236.628,294.612 241.5,296C 243.314,298.481 243.98,301.315 243.5,304.5C 240.5,304.5 237.5,304.5 234.5,304.5C 234.5,303.5 234.5,302.5 234.5,301.5C 233.5,301.5 232.5,301.5 231.5,301.5C 231.5,303.5 231.5,305.5 231.5,307.5C 243.141,306.745 246.974,312.078 243,323.5C 242.167,324.333 241.333,325.167 240.5,326C 235.5,326.667 230.5,326.667 225.5,326C 222.814,323.454 221.814,320.287 222.5,316.5C 225.5,316.5 228.5,316.5 231.5,316.5C 231.5,317.833 231.5,319.167 231.5,320.5C 232.5,320.5 233.5,320.5 234.5,320.5C 234.5,318.167 234.5,315.833 234.5,313.5C 231.15,313.665 227.817,313.498 224.5,313C 224,312.5 223.5,312 223,311.5C 222.333,306.833 222.333,302.167 223,297.5C 224.145,296.364 225.312,295.364 226.5,294.5 Z"/></g>
<g><path style="opacity:1" fill="#2fc9be" d="M 244.5,294.5 C 251.833,294.5 259.167,294.5 266.5,294.5C 266.5,296.833 266.5,299.167 266.5,301.5C 264.167,301.5 261.833,301.5 259.5,301.5C 259.5,309.833 259.5,318.167 259.5,326.5C 256.5,326.5 253.5,326.5 250.5,326.5C 250.5,318.167 250.5,309.833 250.5,301.5C 248.5,301.5 246.5,301.5 244.5,301.5C 244.5,299.167 244.5,296.833 244.5,294.5 Z"/></g>
<g><path style="opacity:1" fill="#2bc8bd" d="M 268.5,294.5 C 271.5,294.5 274.5,294.5 277.5,294.5C 277.5,303.167 277.5,311.833 277.5,320.5C 278.822,320.67 279.989,320.337 281,319.5C 281.5,311.173 281.666,302.84 281.5,294.5C 284.5,294.5 287.5,294.5 290.5,294.5C 290.666,303.839 290.5,313.173 290,322.5C 289.5,324.333 288.333,325.5 286.5,326C 281.5,326.667 276.5,326.667 271.5,326C 270.333,325.5 269.5,324.667 269,323.5C 268.5,313.839 268.334,304.172 268.5,294.5 Z"/></g>
<g><path style="opacity:1" fill="#1fc7bb" d="M 294.5,294.5 C 301.284,294.08 307.95,294.58 314.5,296C 315.126,296.75 315.626,297.584 316,298.5C 316.667,306.5 316.667,314.5 316,322.5C 315.626,323.416 315.126,324.25 314.5,325C 307.95,326.42 301.284,326.92 294.5,326.5C 294.5,315.833 294.5,305.167 294.5,294.5 Z"/></g>
<g><path style="opacity:1" fill="#26c7bc" d="M 319.5,294.5 C 322.5,294.5 325.5,294.5 328.5,294.5C 328.5,305.167 328.5,315.833 328.5,326.5C 325.5,326.5 322.5,326.5 319.5,326.5C 319.5,315.833 319.5,305.167 319.5,294.5 Z"/></g>
<g><path style="opacity:1" fill="#e4e9e9" d="M 178.5,301.5 C 180.167,301.5 181.833,301.5 183.5,301.5C 183.5,307.833 183.5,314.167 183.5,320.5C 181.856,320.714 180.356,320.38 179,319.5C 178.501,313.509 178.334,307.509 178.5,301.5 Z"/></g>
<g><path style="opacity:1" fill="#f9fefe" d="M 303.5,300.5 C 304.833,300.5 306.167,300.5 307.5,300.5C 307.5,307.167 307.5,313.833 307.5,320.5C 306.167,320.5 304.833,320.5 303.5,320.5C 303.5,313.833 303.5,307.167 303.5,300.5 Z"/></g>
<g><path style="opacity:1" fill="#d8dddd" d="M 206.5,304.5 C 207.117,304.611 207.617,304.944 208,305.5C 208.826,308.793 209.326,312.126 209.5,315.5C 208.167,315.5 206.833,315.5 205.5,315.5C 205.724,311.821 206.058,308.154 206.5,304.5 Z"/></g>
<g><path style="opacity:1" fill="#161616" d="M 159.5,351.5 C 160.5,351.5 161.5,351.5 162.5,351.5C 162.187,355.042 162.521,358.375 163.5,361.5C 165.5,361.5 167.5,361.5 169.5,361.5C 169.5,362.5 169.5,363.5 169.5,364.5C 166.167,364.5 162.833,364.5 159.5,364.5C 159.5,360.167 159.5,355.833 159.5,351.5 Z"/></g>
<g><path style="opacity:1" fill="#8e9191" d="M 159.5,351.5 C 160.568,350.566 161.901,350.232 163.5,350.5C 163.5,354.167 163.5,357.833 163.5,361.5C 162.521,358.375 162.187,355.042 162.5,351.5C 161.5,351.5 160.5,351.5 159.5,351.5 Z"/></g>
<g><path style="opacity:1" fill="#161616" d="M 237.5,350.5 C 243.362,350.662 244.695,353.162 241.5,358C 242,358.5 242.5,359 243,359.5C 244.183,358.269 245.349,358.269 246.5,359.5C 245.253,361.042 245.253,362.542 246.5,364C 243.99,363.352 241.49,363.519 239,364.5C 234.18,363.375 233.347,360.875 236.5,357C 235.049,354.53 235.383,352.363 237.5,350.5 Z"/></g>
<g><path style="opacity:1" fill="#121313" d="M 262.5,350.5 C 266.577,350.017 268.91,351.684 269.5,355.5C 267.519,354.652 265.519,354.152 263.5,354C 262.565,356.381 262.232,358.881 262.5,361.5C 266.257,361.714 266.924,360.714 264.5,358.5C 266.045,357.548 267.712,357.215 269.5,357.5C 269.998,363.499 267.331,365.666 261.5,364C 258.585,359.176 258.919,354.676 262.5,350.5 Z"/></g>
<g><path style="opacity:1" fill="#0b0b0b" d="M 330.5,350.5 C 331.5,350.5 332.5,350.5 333.5,350.5C 333.34,352.199 333.506,353.866 334,355.5C 335.938,354.14 337.604,354.473 339,356.5C 339.497,359.146 339.664,361.813 339.5,364.5C 338.5,364.5 337.5,364.5 336.5,364.5C 336.5,362.167 336.5,359.833 336.5,357.5C 335.5,357.5 334.5,357.5 333.5,357.5C 333.5,359.833 333.5,362.167 333.5,364.5C 332.5,364.5 331.5,364.5 330.5,364.5C 330.5,359.833 330.5,355.167 330.5,350.5 Z"/></g>
<g><path style="opacity:1" fill="#141414" d="M 320.5,351.5 C 321.5,351.5 322.5,351.5 323.5,351.5C 323.48,353.143 324.147,354.476 325.5,355.5C 324.511,356.468 323.844,357.635 323.5,359C 324.378,360.8 325.045,362.633 325.5,364.5C 323.856,364.714 322.356,364.38 321,363.5C 320.9,360.563 320.067,357.896 318.5,355.5C 319.853,354.476 320.52,353.143 320.5,351.5 Z"/></g>
<g><path style="opacity:1" fill="#1b1b1b" d="M 176.5,354.5 C 181.339,353.677 183.673,355.677 183.5,360.5C 176.374,360.363 176.041,361.03 182.5,362.5C 180.956,364.446 178.956,364.946 176.5,364C 173.888,360.836 173.888,357.669 176.5,354.5 Z"/></g>
<g><path style="opacity:1" fill="#1b1c1c" d="M 189.5,354.5 C 196.833,353.847 199.499,357.18 197.5,364.5C 194.552,364.777 191.719,364.444 189,363.5C 187.863,359.63 189.363,357.797 193.5,358C 191.744,357.798 190.078,357.298 188.5,356.5C 188.863,355.817 189.196,355.15 189.5,354.5 Z"/></g>
<g><path style="opacity:1" fill="#040404" d="M 202.5,354.5 C 204.331,355.052 205.997,355.052 207.5,354.5C 208.627,356.269 208.127,357.603 206,358.5C 205.505,360.473 205.338,362.473 205.5,364.5C 204.5,364.5 203.5,364.5 202.5,364.5C 202.5,361.167 202.5,357.833 202.5,354.5 Z"/></g>
<g><path style="opacity:1" fill="#060606" d="M 213.5,354.5 C 215.477,355.149 217.31,355.149 219,354.5C 220.261,354.759 221.261,355.426 222,356.5C 222.497,359.146 222.664,361.813 222.5,364.5C 221.5,364.5 220.5,364.5 219.5,364.5C 219.5,362.167 219.5,359.833 219.5,357.5C 218.5,357.5 217.5,357.5 216.5,357.5C 216.5,359.833 216.5,362.167 216.5,364.5C 215.5,364.5 214.5,364.5 213.5,364.5C 213.5,361.167 213.5,357.833 213.5,354.5 Z"/></g>
<g><path style="opacity:1" fill="#bec2c2" d="M 238.5,353.5 C 240.337,353.639 240.67,354.306 239.5,355.5C 238.702,355.043 238.369,354.376 238.5,353.5 Z"/></g>
<g><path style="opacity:1" fill="#252525" d="M 274.5,354.5 C 276.833,354.5 279.167,354.5 281.5,354.5C 281.5,355.5 281.5,356.5 281.5,357.5C 280.5,357.5 279.5,357.5 278.5,357.5C 278.5,359.833 278.5,362.167 278.5,364.5C 277.167,364.5 275.833,364.5 274.5,364.5C 274.5,361.167 274.5,357.833 274.5,354.5 Z"/></g>
<g><path style="opacity:1" fill="#1c1c1c" d="M 288.5,354.5 C 295.641,354.62 297.308,357.787 293.5,364C 288.16,364.989 285.66,362.822 286,357.5C 286.698,356.309 287.531,355.309 288.5,354.5 Z"/></g>
<g><path style="opacity:1" fill="#0d0d0d" d="M 300.5,354.5 C 301.5,354.5 302.5,354.5 303.5,354.5C 304.167,359.833 304.833,359.833 305.5,354.5C 308.346,354.809 309.846,356.475 310,359.5C 311.009,357.975 311.509,356.308 311.5,354.5C 312.675,354.281 313.675,354.614 314.5,355.5C 313.366,358.07 312.532,360.736 312,363.5C 310.989,364.337 309.822,364.67 308.5,364.5C 307.386,359.371 306.719,359.371 306.5,364.5C 305.167,364.5 303.833,364.5 302.5,364.5C 301.833,361.167 301.167,357.833 300.5,354.5 Z"/></g>
<g><path style="opacity:1" fill="#e0e4e4" d="M 289.5,357.5 C 290.5,357.5 291.5,357.5 292.5,357.5C 292.5,358.833 292.5,360.167 292.5,361.5C 291.5,361.5 290.5,361.5 289.5,361.5C 289.5,360.167 289.5,358.833 289.5,357.5 Z"/></g>
<g><path style="opacity:1" fill="#d6dbdb" d="M 238.5,359.5 C 241.137,361.154 240.803,361.654 237.5,361C 238.056,360.617 238.389,360.117 238.5,359.5 Z"/></g>
<g><path style="opacity:1" fill="#c5c9c9" d="M 191.5,360.5 C 193.337,360.639 193.67,361.306 192.5,362.5C 191.702,362.043 191.369,361.376 191.5,360.5 Z"/></g>
</svg>
